<svg xmlns="http://www.w3.org/2000/svg" version="1.1" xmlns:xlink="http://www.w3.org/1999/xlink" xmlns:svgjs="http://svgjs.dev/svgjs" width="120" height="120"><svg width="120" height="120" viewBox="0 0 120 120" fill="none" xmlns="http://www.w3.org/2000/svg">
<path d="M0 26C0 11.6406 11.6406 0 26 0H94C108.359 0 120 11.6406 120 26V94C120 108.359 108.359 120 94 120H26C11.6406 120 0 108.359 0 94V26Z" fill="#F9EB10"></path>
<path d="M39.7372 94.4702C37.2017 94.4702 34.8793 93.8523 32.7699 92.6165C30.6605 91.3594 28.9773 89.6761 27.7202 87.5668C26.4844 85.4574 25.8665 83.1349 25.8665 80.5994C25.8665 78.0426 26.4844 75.7095 27.7202 73.6001C28.9773 71.4908 30.6605 69.8075 32.7699 68.5504C34.8793 67.2933 37.2017 66.6648 39.7372 66.6648H47.152V53.8168H39.7372C37.2017 53.8168 34.8793 53.1989 32.7699 51.9631C30.6605 50.706 28.9773 49.0334 27.7202 46.9453C26.4844 44.8359 25.8665 42.5028 25.8665 39.946C25.8665 37.3892 26.4844 35.0668 27.7202 32.9787C28.9773 30.8693 30.6605 29.1967 32.7699 27.9609C34.8793 26.7038 37.2017 26.0753 39.7372 26.0753C42.294 26.0753 44.6271 26.7038 46.7365 27.9609C48.8459 29.1967 50.5291 30.8693 51.7862 32.9787C53.0433 35.0668 53.6719 37.3892 53.6719 39.946V47.2969H66.5199V39.946C66.5199 37.3892 67.1378 35.0668 68.3736 32.9787C69.6307 30.8693 71.3033 29.1967 73.3913 27.9609C75.5007 26.7038 77.8338 26.0753 80.3906 26.0753C82.9474 26.0753 85.2699 26.7038 87.358 27.9609C89.4673 29.1967 91.1399 30.8693 92.3757 32.9787C93.6328 35.0668 94.2614 37.3892 94.2614 39.946C94.2614 42.5028 93.6328 44.8359 92.3757 46.9453C91.1399 49.0334 89.4673 50.706 87.358 51.9631C85.2699 53.1989 82.9474 53.8168 80.3906 53.8168H73.0398V66.6648H80.3906C82.9474 66.6648 85.2699 67.2933 87.358 68.5504C89.4673 69.8075 91.1399 71.4908 92.3757 73.6001C93.6328 75.7095 94.2614 78.0426 94.2614 80.5994C94.2614 83.1349 93.6328 85.4574 92.3757 87.5668C91.1399 89.6761 89.4673 91.3594 87.358 92.6165C85.2699 93.8523 82.9474 94.4702 80.3906 94.4702C77.8338 94.4702 75.5007 93.8523 73.3913 92.6165C71.3033 91.3594 69.6307 89.6761 68.3736 87.5668C67.1378 85.4574 66.5199 83.1349 66.5199 80.5994V73.1847H53.6719V80.5994C53.6719 83.1349 53.0433 85.4574 51.7862 87.5668C50.5291 89.6761 48.8459 91.3594 46.7365 92.6165C44.6271 93.8523 42.294 94.4702 39.7372 94.4702ZM39.7372 87.9503C41.1009 87.9503 42.3366 87.62 43.4446 86.9595C44.5739 86.299 45.4687 85.4148 46.1293 84.3068C46.8111 83.1776 47.152 81.9418 47.152 80.5994V73.1847H39.7372C38.3949 73.1847 37.1591 73.5256 36.0298 74.2074C34.9219 74.8679 34.0376 75.7628 33.3771 76.892C32.7166 78 32.3864 79.2358 32.3864 80.5994C32.3864 81.9418 32.7166 83.1776 33.3771 84.3068C34.0376 85.4148 34.9219 86.299 36.0298 86.9595C37.1591 87.62 38.3949 87.9503 39.7372 87.9503ZM39.7372 47.2969H47.152V39.946C47.152 38.5824 46.8111 37.3466 46.1293 36.2386C45.4687 35.1307 44.5739 34.2464 43.4446 33.5859C42.3366 32.9254 41.1009 32.5952 39.7372 32.5952C38.3949 32.5952 37.1591 32.9254 36.0298 33.5859C34.9219 34.2464 34.0376 35.1307 33.3771 36.2386C32.7166 37.3466 32.3864 38.5824 32.3864 39.946C32.3864 41.3097 32.7166 42.5561 33.3771 43.6854C34.0376 44.7933 34.9219 45.6776 36.0298 46.3381C37.1591 46.9773 38.3949 47.2969 39.7372 47.2969ZM73.0398 47.2969H80.3906C81.7543 47.2969 82.9901 46.9773 84.098 46.3381C85.206 45.6776 86.0902 44.7933 86.7507 43.6854C87.4112 42.5561 87.7415 41.3097 87.7415 39.946C87.7415 38.5824 87.4112 37.3466 86.7507 36.2386C86.0902 35.1307 85.206 34.2464 84.098 33.5859C82.9901 32.9254 81.7543 32.5952 80.3906 32.5952C79.027 32.5952 77.7805 32.9254 76.6513 33.5859C75.5433 34.2464 74.6591 35.1307 73.9986 36.2386C73.3594 37.3466 73.0398 38.5824 73.0398 39.946V47.2969ZM80.3906 87.9503C81.7543 87.9503 82.9901 87.62 84.098 86.9595C85.206 86.299 86.0902 85.4148 86.7507 84.3068C87.4112 83.1776 87.7415 81.9418 87.7415 80.5994C87.7415 79.2358 87.4112 78 86.7507 76.892C86.0902 75.7628 85.206 74.8679 84.098 74.2074C82.9901 73.5256 81.7543 73.1847 80.3906 73.1847H73.0398V80.5994C73.0398 81.9418 73.3594 83.1776 73.9986 84.3068C74.6591 85.4148 75.5433 86.299 76.6513 86.9595C77.7805 87.62 79.027 87.9503 80.3906 87.9503ZM53.6719 66.6648H66.5199V53.8168H53.6719V66.6648Z" fill="black"></path>
</svg><style>@media (prefers-color-scheme: light) { :root { filter: none; } }
@media (prefers-color-scheme: dark) { :root { filter: none; } }
</style></svg>